<?xml version="1.0" standalone="no"?><!DOCTYPE svg PUBLIC "-//W3C//DTD SVG 1.1//EN" "http://www.w3.org/Graphics/SVG/1.1/DTD/svg11.dtd"><svg t="1706705720292" class="icon" viewBox="0 0 1024 1024" version="1.1" xmlns="http://www.w3.org/2000/svg" p-id="2485" xmlns:xlink="http://www.w3.org/1999/xlink" width="200" height="200"><path d="M682.666667 469.333333c72.533333 0 128-55.466667 128-128s-55.466667-128-128-128-128 55.466667-128 128 55.466667 128 128 128z m-341.333334 0c72.533333 0 128-55.466667 128-128S413.866667 213.333333 341.333333 213.333333 213.333333 268.8 213.333333 341.333333s55.466667 128 128 128z m0 85.333334c-98.133333 0-298.666667 51.2-298.666666 149.333333V810.666667h597.333333v-106.666667c0-98.133333-200.533333-149.333333-298.666667-149.333333z m341.333334 0c-12.8 0-25.6 0-42.666667 4.266666 51.2 34.133333 85.333333 85.333333 85.333333 145.066667V810.666667h256v-106.666667c0-98.133333-200.533333-149.333333-298.666666-149.333333z" p-id="2486"></path></svg>