<?xml version="1.0" standalone="no"?><!DOCTYPE svg PUBLIC "-//W3C//DTD SVG 1.1//EN" "http://www.w3.org/Graphics/SVG/1.1/DTD/svg11.dtd"><svg class="icon" width="200px" height="200.00px" viewBox="0 0 1024 1024" version="1.1" xmlns="http://www.w3.org/2000/svg"><path d="M567.6 297m-55.6 0a55.6 55.6 0 1 0 111.2 0 55.6 55.6 0 1 0-111.2 0Z" fill="#FE8E46" /><path d="M594 315.4c-25.8 0-46.8-21-46.8-46.8 0-9.6 3-18.6 7.8-26-24.8 5.6-43.2 27.8-43.2 54.2 0 30.8 25 55.6 55.6 55.6 27.8 0 51-20.4 55-47.2-7.6 6.4-17.6 10.2-28.4 10.2z" fill="#E56823" /><path d="M512 756.2l-108.4 60.4h216.8z" fill="#5B7C31" /><path d="M295.2 352.6L512 569.6l216.8-217z" fill="#FEFE71" /><path d="M397.6 352.6h-102.4L512 569.6l51.2-51.2z" fill="#D6CD1E" /><path d="M512 583.6c-3.8 0-7.2-1.4-9.8-4L285.2 362.6c-4-4-5.2-10-3-15.2 2.2-5.2 7.2-8.6 13-8.6h433.8c5.6 0 10.8 3.4 13 8.6 2.2 5.2 1 11.2-3 15.2L522 579.4c-2.8 2.6-6.2 4.2-10 4.2z m-183-217l183 183 183-183h-366z" fill="#463218" /><path d="M567.6 366.6c-38.4 0-69.6-31.2-69.6-69.6s31.2-69.6 69.6-69.6 69.6 31.2 69.6 69.6-31 69.6-69.6 69.6z m0-111.4c-23 0-41.6 18.8-41.6 41.6s18.8 41.6 41.6 41.6 41.6-18.8 41.6-41.6-18.6-41.6-41.6-41.6z" fill="#463218" /><path d="M567.8 255.2h-1.2c-7.8-0.6-13.4-7.4-12.8-15.2 0.2-2.4 6-60.4 63-76.2 7.4-2 15.2 2.2 17.2 9.8 2 7.4-2.2 15.2-9.8 17.2-38.6 10.8-42.6 51.4-42.6 51.8-0.6 7.2-6.8 12.6-13.8 12.6zM512 770.2c-7.8 0-14-6.2-14-14v-186.6c0-7.8 6.2-14 14-14s14 6.2 14 14v186.6c0 7.8-6.2 14-14 14z" fill="#463218" /><path d="M620.4 830.6H403.6c-6.4 0-12-4.4-13.6-10.4-1.6-6.2 1.2-12.6 6.8-15.8l108.4-60.4c4.2-2.4 9.4-2.4 13.6 0l108.4 60.4c5.6 3.2 8.4 9.6 6.8 15.8-1.6 6-7.2 10.4-13.6 10.4z m-163-28h109L512 772.2l-54.6 30.4z" fill="#463218" /><path d="M357.4 415l154.6 154.6 154.6-154.6z" fill="#FE8E46" /><path d="M459.8 415h-102.4l154.6 154.6 51.2-51.2z" fill="#E56823" /><path d="M512 583.6c-3.8 0-7.2-1.4-10-4l-154.6-154.6c-4-4-5.2-10-3-15.2 2.2-5.2 7.2-8.6 13-8.6h309.2c5.6 0 10.8 3.4 13 8.6 2.2 5.2 1 11.2-3 15.2L522 579.4c-2.8 2.6-6.2 4.2-10 4.2z m-120.8-154.6l120.8 120.8 120.8-120.8H391.2z" fill="#463218" /><path d="M450.14 459.626l20.062-19.53 46.314 47.574-20.06 19.53z" fill="#FFFFFF" /></svg>